<?xml version="1.0" standalone="no"?>
<!DOCTYPE svg PUBLIC "-//W3C//DTD SVG 20010904//EN"
 "http://www.w3.org/TR/2001/REC-SVG-20010904/DTD/svg10.dtd">
<svg version="1.0" xmlns="http://www.w3.org/2000/svg"
 width="1280.000000pt" height="814.000000pt" viewBox="0 0 1280.000000 814.000000"
 preserveAspectRatio="xMidYMid meet">
<metadata>
Created by potrace 1.15, written by Peter Selinger 2001-2017
</metadata>
<g transform="translate(0.000000,814.000000) scale(0.100000,-0.100000)"
fill="#000000" stroke="none">
<path d="M1145 8133 c-291 -37 -538 -157 -745 -363 -189 -188 -309 -410 -372
-691 l-23 -104 0 -1600 c0 -1503 1 -1605 18 -1689 99 -484 421 -867 857 -1016
181 -62 196 -63 813 -67 l567 -4 0 -803 0 -803 22 -28 c30 -39 78 -57 116 -44
21 7 221 237 733 844 l704 834 693 1 693 0 -8 58 c-4 31 -8 651 -8 1377 l0
1320 28 100 c118 422 446 723 854 784 48 7 457 11 1238 11 l1166 0 -4 378 c-3
310 -7 390 -21 452 -123 535 -483 907 -1003 1037 -63 16 -282 17 -3178 19
-1710 0 -3123 -1 -3140 -3z"/>
<path d="M6540 5745 c-353 -71 -625 -338 -728 -713 l-27 -97 -3 -1365 c-3
-1386 -1 -1482 34 -1620 53 -207 187 -407 358 -536 77 -59 218 -127 321 -156
l80 -23 1301 -3 1300 -3 498 -588 c273 -324 508 -601 521 -615 32 -35 69 -34
106 3 l29 29 0 586 0 585 838 4 c769 3 843 5 906 21 179 47 322 132 453 270
124 129 196 262 246 449 l22 82 0 1435 c0 1366 -1 1439 -19 1515 -88 380 -370
665 -729 739 -68 14 -355 16 -2759 15 -2174 -1 -2695 -3 -2748 -14z"/>
</g>
</svg>
